<mxfile host="app.diagrams.net" modified="2024-05-27T07:26:38.401Z" agent="Mozilla/5.0 (Windows NT 10.0; Win64; x64) AppleWebKit/537.36 (KHTML, like Gecko) Chrome/125.0.0.0 Safari/537.36" version="24.4.4" etag="xMgq_0kWpO0kKCLFcuXl" type="github">
  <diagram name="第 1 页" id="JgA8WgljMYyJsv3ChiZQ">
    <mxGraphModel>
      <root>
        <mxCell id="0" />
        <mxCell id="1" parent="0" />
      </root>
    </mxGraphModel>
  </diagram>
</mxfile>
